<?xml version="1.0" standalone="no"?>
<!DOCTYPE svg PUBLIC "-//W3C//DTD SVG 20010904//EN"
 "http://www.w3.org/TR/2001/REC-SVG-20010904/DTD/svg10.dtd">
<svg version="1.0" xmlns="http://www.w3.org/2000/svg"
 width="500.000000pt" height="500.000000pt" viewBox="0 0 500.000000 500.000000"
 preserveAspectRatio="xMidYMid meet">

<g transform="translate(0.000000,500.000000) scale(0.100000,-0.100000)"
fill="#000000" stroke="none">
<path d="M2442 4539 c-321 -31 -623 -176 -839 -403 -195 -205 -312 -441 -359
-726 -41 -253 6 -539 130 -787 211 -420 608 -688 1087 -732 184 -17 379 8 569
74 66 23 85 25 155 20 145 -11 361 21 533 79 335 114 646 395 819 739 24 49
43 90 41 92 -2 2 -32 -31 -67 -72 -206 -242 -543 -451 -844 -523 -126 -31
-127 -30 -58 51 133 154 230 336 282 534 30 114 32 129 33 310 1 205 -10 282
-61 440 -162 505 -607 852 -1160 905 -119 11 -140 11 -261 -1z"/>
</g>
</svg>
